<?xml version="1.0" encoding="utf-8"?>
<!-- Generator: Adobe Illustrator 23.1.0, SVG Export Plug-In . SVG Version: 6.00 Build 0)  -->
<svg version="1.1" id="Слой_1" xmlns="http://www.w3.org/2000/svg" xmlns:xlink="http://www.w3.org/1999/xlink" x="0px" y="0px"
	 viewBox="0 0 500 500" style="enable-background:new 0 0 500 500;" xml:space="preserve">
<style type="text/css">
	.st0{fill:#FFFFFF;}
</style>
<g>
	<ellipse cx="168.5" cy="222.5" rx="103" ry="99"/>
	<path class="st0" d="M168.5,124c56.52,0,102.5,44.19,102.5,98.5S225.02,321,168.5,321S66,276.81,66,222.5S111.98,124,168.5,124
		 M168.5,123C111.34,123,65,167.55,65,222.5S111.34,322,168.5,322S272,277.45,272,222.5S225.66,123,168.5,123L168.5,123z"/>
</g>
<g>
	<path class="st0" d="M310.28,305.48c-1.99-6.49-1.6-13.47-0.48-20.16c4.53-26.98,21.36-51.65,44.82-65.72
		c9.4-5.64,19.96-9.67,30.91-10.26c10.95-0.59,22.31,2.5,30.6,9.68c6.98,6.04,11.4,14.53,14.45,23.24
		c6.53,18.71,7.32,38.86,7.9,58.67"/>
	<g>
		<path class="st0" d="M311.72,305.08c-2.46-8.25-1.22-17.12,0.73-25.34c1.72-7.24,4.32-14.25,7.71-20.87
			c6.72-13.11,16.45-24.75,28.37-33.44c13.16-9.6,29.77-16.64,46.34-14.19c7.77,1.15,15.31,4.29,21.11,9.66
			c5.9,5.46,9.81,12.73,12.58,20.2c6.27,16.94,7.57,35.18,8.2,53.08c0.08,2.25,0.15,4.49,0.21,6.74c0.06,1.93,3.06,1.93,3,0
			c-0.55-18.71-1.25-37.76-6.86-55.76c-2.51-8.05-5.95-15.94-11.34-22.49c-5.29-6.43-12.52-10.9-20.52-13.14
			c-17.01-4.75-34.86,0.78-49.34,9.97c-13.05,8.29-23.98,19.82-31.77,33.16c-3.88,6.64-6.98,13.75-9.19,21.12
			c-2.43,8.08-4.22,16.92-3.41,25.38c0.22,2.28,0.63,4.52,1.28,6.72C309.38,307.72,312.28,306.94,311.72,305.08L311.72,305.08z"/>
	</g>
</g>
<g>
	<g>
		<path class="st0" d="M185.02,380.97c-0.97,13.27,1.82,27.04,9.01,38.34c6.33,9.94,16.01,17.85,27.3,21.42
			c11.49,3.63,23.91,2.17,34.82-2.62c11.3-4.96,20.6-13.46,27.3-23.75c7.87-12.09,12.09-26.19,13.96-40.4
			c0.11-0.81-0.77-1.49-1.5-1.5c-0.9-0.01-1.39,0.7-1.5,1.5c-3.09,23.41-13.67,47.49-35.2,59.3c-9.95,5.46-21.77,8.02-32.99,5.65
			c-11.01-2.32-20.87-9.1-27.54-18.1c-8.44-11.39-11.7-25.83-10.68-39.84C188.17,379.04,185.16,379.05,185.02,380.97L185.02,380.97z
			"/>
	</g>
</g>
</svg>
