<?xml version="1.0" encoding="utf-8"?>
<!-- Generator: Adobe Illustrator 23.1.0, SVG Export Plug-In . SVG Version: 6.00 Build 0)  -->
<svg version="1.1" id="Слой_1" xmlns="http://www.w3.org/2000/svg" xmlns:xlink="http://www.w3.org/1999/xlink" x="0px" y="0px"
	 viewBox="0 0 200 200" style="enable-background:new 0 0 200 200;" xml:space="preserve">
<style type="text/css">
	.st0{fill:#FFFFFF;}
</style>
<g id="Слой_2">
	<g>
		<g>
			<path d="M69.94,148.79C58.29,159.84,48,172.3,39.32,185.82c-0.67,1.04,0.46,2.68,1.69,2.2c10.89-4.24,21.12-9.91,31.49-15.24
				c10.65-5.47,21.41-10.74,32.2-15.93c6.21-2.99,12.43-5.94,18.66-8.9c1.5-0.71,0.55-2.65-0.76-2.8
				c-18.88-2.15-37.56,2.52-56.35,3.59c-1.92,0.11-1.93,3.11,0,3c18.78-1.07,37.47-5.74,56.35-3.59c-0.25-0.93-0.5-1.86-0.76-2.8
				c-10.82,5.14-21.63,10.28-32.38,15.56c-10.62,5.21-21.09,10.69-31.62,16.07c-5.77,2.95-11.6,5.77-17.64,8.13
				c0.56,0.73,1.13,1.47,1.69,2.2c8.54-13.31,18.68-25.54,30.15-36.43C73.47,149.58,71.34,147.46,69.94,148.79L69.94,148.79z"/>
		</g>
	</g>
</g>
<g>
	<path class="st0" d="M32,164c-4.41,0-8-3.59-8-8V62c0-4.41,3.59-8,8-8h137c4.41,0,8,3.59,8,8v94c0,4.41-3.59,8-8,8H32z"/>
	<path d="M169,55c3.86,0,7,3.14,7,7v94c0,3.86-3.14,7-7,7H32c-3.86,0-7-3.14-7-7V62c0-3.86,3.14-7,7-7H169 M169,53H32
		c-4.97,0-9,4.03-9,9v94c0,4.97,4.03,9,9,9h137c4.97,0,9-4.03,9-9V62C178,57.03,173.97,53,169,53L169,53z"/>
</g>
<g id="Слой_3">
	<g>
		<g>
			<path d="M49.84,65.34c-3.8,8.26-6.36,16.99-8.41,25.83c-2.08,8.98-3.91,18.09-4.5,27.3c-0.56,8.7-0.11,18.08,3.07,26.3
				c1.37,3.54,3.36,6.85,6.42,9.18c3.02,2.29,6.75,3.33,10.5,3.5c7.43,0.33,14.98-2.53,21.15-6.5c6.36-4.08,11.8-9.78,15.35-16.48
				c3.67-6.94,5.22-15.56,0.76-22.53c-4.15-6.48-11.59-9.85-19.1-10.26c-4.52-0.25-9.1,0.51-13.43,1.78
				c-3.94,1.16-7.87,2.73-11.2,5.17c-6.41,4.69-9.52,12.01-11.53,19.46c-0.5,1.85-0.94,3.72-1.38,5.59
				c-0.44,1.88,2.45,2.68,2.89,0.8c1.57-6.72,3.21-13.95,7.62-19.46c4.83-6.04,12.87-8.85,20.3-10c7.25-1.11,15.14,0.09,20.63,5.3
				c2.41,2.29,4.12,5.16,4.75,8.44c0.73,3.78-0.1,7.72-1.5,11.24c-2.57,6.46-7.33,12.19-12.82,16.39
				c-5.37,4.09-11.99,7.27-18.76,7.95c-3.34,0.34-6.86,0.12-9.94-1.3c-3.26-1.51-5.54-4.23-7.08-7.42
				c-1.67-3.45-2.51-7.33-3.11-11.09c-0.65-4.13-0.83-8.33-0.73-12.51c0.22-8.52,1.7-16.94,3.49-25.25
				c1.75-8.13,3.76-16.25,6.72-24.04c0.75-1.99,1.57-3.94,2.46-5.87C53.23,65.11,50.64,63.58,49.84,65.34L49.84,65.34z"/>
		</g>
	</g>
	<g>
		<g>
			<path d="M105.87,65.93c-3.18,22.01-3.94,44.34-2.14,66.51c0.51,6.29,1.23,12.56,2.13,18.8c0.27,1.9,3.17,1.09,2.89-0.8
				c-3.11-21.57-3.79-43.5-2.06-65.23c0.49-6.18,1.18-12.35,2.07-18.49C109.03,64.84,106.14,64.03,105.87,65.93L105.87,65.93z"/>
		</g>
	</g>
	<g>
		<g>
			<path d="M114.25,135.81c-0.04,4.14,1.07,8.67,4.23,11.56c2.94,2.69,7.51,3.81,11.13,1.78c3.83-2.15,5.47-6.88,4.58-11.05
				c-0.86-4-4.31-7.18-8.32-7.86c-4.48-0.77-9.12,1.59-11.11,5.7c-0.35,0.73-0.2,1.62,0.54,2.05c0.66,0.38,1.7,0.19,2.05-0.54
				c1.27-2.63,3.94-4.45,6.91-4.38c2.85,0.06,5.64,1.93,6.68,4.6c1.13,2.9,0.36,6.56-2.18,8.47c-2.31,1.74-5.51,1.15-7.7-0.5
				c-2.96-2.25-3.84-6.31-3.81-9.83C117.27,133.88,114.27,133.88,114.25,135.81L114.25,135.81z"/>
		</g>
	</g>
	<g>
		<g>
			<path d="M152.69,130.46c-3-2.26-7.42-4-10.69-1.17c-2.74,2.37-3.33,7.09-2.09,10.34c1.49,3.91,5.47,5.67,9.24,3.57
				c3.67-2.04,5.02-6.29,5.68-10.17c-0.98-0.13-1.96-0.27-2.95-0.4c0.23,4.76,0.16,9.95-1.36,14.51c-0.59,1.79-1.59,3.53-3.26,4.5
				c-1.98,1.16-4.43,1.15-6.66,1.18c-1.93,0.03-1.93,3.03,0,3c2.6-0.04,5.26-0.16,7.65-1.31c2.17-1.05,3.7-3.01,4.63-5.19
				c0.98-2.28,1.38-4.71,1.67-7.16c0.39-3.17,0.48-6.36,0.33-9.54c-0.08-1.59-2.65-2.15-2.95-0.4c-0.46,2.68-1.08,5.6-3.16,7.54
				c-0.92,0.86-2.24,1.57-3.54,1.35c-1.3-0.22-2.17-1.49-2.57-2.65c-0.73-2.07-0.5-5.42,1.3-6.93c2.23-1.87,5.32,0.1,7.19,1.51
				C152.72,134.21,154.22,131.61,152.69,130.46L152.69,130.46z"/>
		</g>
	</g>
</g>
</svg>
