<?xml version="1.0" encoding="utf-8"?>
<!-- Generator: Adobe Illustrator 23.1.0, SVG Export Plug-In . SVG Version: 6.00 Build 0)  -->
<svg version="1.1" id="Слой_1" xmlns="http://www.w3.org/2000/svg" xmlns:xlink="http://www.w3.org/1999/xlink" x="0px" y="0px"
	 viewBox="0 0 200 200" style="enable-background:new 0 0 200 200;" xml:space="preserve">
<style type="text/css">
	.st0{fill:#FFFFFF;}
	.st1{fill:none;}
	.st2{font-family:'MyriadPro-Regular';}
	.st3{font-size:50px;}
	.st4{fill:#662D91;stroke:#000000;stroke-miterlimit:10;}
</style>
<g>
	<rect x="32.5" y="19.5" class="st0" width="61" height="76"/>
	<path d="M93,20v75H33V20H93 M94,19H32v77h62V19L94,19z"/>
</g>
<g>
	<rect x="32.5" y="100.5" class="st0" width="61" height="76"/>
	<path d="M93,101v75H33v-75H93 M94,100H32v77h62V100L94,100z"/>
</g>
<rect x="54.46" y="39.24" class="st1" width="17.54" height="36.28"/>
<text transform="matrix(1 0 0 1 54.46 74.7383)" class="st2 st3">-</text>
<rect x="48" y="116.82" class="st1" width="30" height="45.18"/>
<text transform="matrix(1 0 0 1 48 152.3171)" class="st2 st3">+</text>
<rect x="101" y="19" class="st4" width="73" height="158"/>
<rect x="122.27" y="79.59" class="st1" width="33.73" height="40.41"/>
<text transform="matrix(1 0 0 1 122.2744 115.0923)" class="st0 st2 st3">=</text>
</svg>
