<?xml version="1.0" encoding="utf-8"?>
<!-- Generator: Adobe Illustrator 23.1.0, SVG Export Plug-In . SVG Version: 6.00 Build 0)  -->
<svg version="1.1" id="Слой_1" xmlns="http://www.w3.org/2000/svg" xmlns:xlink="http://www.w3.org/1999/xlink" x="0px" y="0px"
	 viewBox="0 0 50 40" style="enable-background:new 0 0 50 40;" xml:space="preserve">
<style type="text/css">
	.st0{stroke:#FFFFFF;stroke-width:0.25;stroke-miterlimit:10;}
	.st1{fill:#FFFFFF;stroke:#FFFFFF;stroke-width:0.25;stroke-miterlimit:10;}
	.st2{fill:#201600;stroke:#000000;stroke-width:2;stroke-miterlimit:10;}
</style>
<ellipse transform="matrix(7.164822e-03 -1 1 7.164822e-03 -1.1886 39.5896)" class="st0" cx="19.34" cy="20.39" rx="17.7" ry="17.27"/>
<path class="st0" d="M12.92,13.73l8.58-0.02l0,2.25l-8.58,0.02c-0.28,0-0.52,0.11-0.72,0.32c-0.2,0.21-0.3,0.46-0.3,0.76l0.03,12.59
	l-2.16,0.01L9.74,17.06c0-0.91,0.31-1.7,0.93-2.35C11.29,14.06,12.04,13.74,12.92,13.73z"/>
<path class="st0" d="M23.19,8.49l2.16-0.01l0,2.25l-2.16,0.01L23.19,8.49z M23.24,29.62L23.2,13.71l2.16-0.01l0.03,15.91
	L23.24,29.62z"/>
<path class="st0" d="M44.56,13.65l2.53-0.01l-8.41,15.93l-2.5,0.01L27.73,13.7l2.53-0.01l7.18,13.7L44.56,13.65z"/>
<path class="st1" d="M12.92,13.73l8.58-0.02l0,2.25l-8.58,0.02c-0.28,0-0.52,0.11-0.72,0.32c-0.2,0.21-0.3,0.46-0.3,0.76l0.03,12.59
	l-2.16,0.01L9.74,17.06c0-0.91,0.31-1.7,0.93-2.35C11.29,14.06,12.04,13.74,12.92,13.73z"/>
<path class="st1" d="M23.19,8.49l2.16-0.01l0,2.25l-2.16,0.01L23.19,8.49z M23.24,29.62L23.2,13.71l2.16-0.01l0.03,15.91
	L23.24,29.62z"/>
<path class="st1" d="M36.18,29.59l-1.06-1.99 M38.68,29.58l-2.5,0.01 M47.09,13.65l-8.41,15.93 M44.56,13.65l2.53-0.01 M38.11,26.09
	l6.45-12.43 M37.44,27.39l0.68-1.3 M36.07,24.79l1.36,2.6 M35.12,27.59l-7.39-13.9l2.53-0.01l5.82,11.1"/>
<line class="st2" x1="9.73" y1="12.34" x2="13.43" y2="19.08"/>
</svg>
