<?xml version="1.0" encoding="UTF-8"?>
<svg version="1.1" xmlns="http://www.w3.org/2000/svg" width="256" height="256">
<path d="M0 0 C84.48 0 168.96 0 256 0 C256 84.48 256 168.96 256 256 C171.52 256 87.04 256 0 256 C0 171.52 0 87.04 0 0 Z " fill="#FBFBFB" transform="translate(0,0)"/>
<path d="M0 0 C2.64 0 5.28 0 8 0 C8 5.28 8 10.56 8 16 C3.05 16 -1.9 16 -7 16 C-7 18.31 -7 20.62 -7 23 C-4.69 23 -2.38 23 0 23 C0 25.64 0 28.28 0 31 C2.64 31 5.28 31 8 31 C8 38.59 8 46.18 8 54 C10.64 54 13.28 54 16 54 C16 44.1 16 34.2 16 24 C20.95 24 25.9 24 31 24 C31 26.31 31 28.62 31 31 C35.95 31 40.9 31 46 31 C46 33.64 46 36.28 46 39 C48.64 39 51.28 39 54 39 C54 43.95 54 48.9 54 54 C51.36 54 48.72 54 46 54 C46 51.69 46 49.38 46 47 C43.69 47 41.38 47 39 47 C39 49.64 39 52.28 39 55 C36.36 55 33.72 55 31 55 C31 57.31 31 59.62 31 62 C36.28 62 41.56 62 47 62 C47 64.64 47 67.28 47 70 C41.72 70 36.44 70 31 70 C31 72.31 31 74.62 31 77 C33.64 77 36.28 77 39 77 C39 79.64 39 82.28 39 85 C36.36 85 33.72 85 31 85 C31 87.64 31 90.28 31 93 C35.95 93 40.9 93 46 93 C46 87.72 46 82.44 46 77 C48.64 77 51.28 77 54 77 C54 74.69 54 72.38 54 70 C56.64 70 59.28 70 62 70 C62 67.36 62 64.72 62 62 C69.59 62 77.18 62 85 62 C85 64.64 85 67.28 85 70 C82.36 70 79.72 70 77 70 C77 72.31 77 74.62 77 77 C74.36 77 71.72 77 69 77 C69 79.64 69 82.28 69 85 C66.69 85 64.38 85 62 85 C62 82.69 62 80.38 62 78 C59.36 78 56.72 78 54 78 C54 82.95 54 87.9 54 93 C61.59 93 69.18 93 77 93 C77 95.64 77 98.28 77 101 C69.41 101 61.82 101 54 101 C54 103.31 54 105.62 54 108 C66.87 108 79.74 108 93 108 C93 112.95 93 117.9 93 123 C97.95 123 102.9 123 108 123 C108 120.69 108 118.38 108 116 C105.36 116 102.72 116 100 116 C100 113.36 100 110.72 100 108 C102.64 108 105.28 108 108 108 C108 105.69 108 103.38 108 101 C105.36 101 102.72 101 100 101 C100 95.72 100 90.44 100 85 C97.36 85 94.72 85 92 85 C92 89.95 92 94.9 92 100 C89.69 100 87.38 100 85 100 C85 92.74 85 85.48 85 78 C87.64 78 90.28 78 93 78 C93 72.72 93 67.44 93 62 C97.95 62 102.9 62 108 62 C108 64.64 108 67.28 108 70 C110.64 70 113.28 70 116 70 C116 77.59 116 85.18 116 93 C113.36 93 110.72 93 108 93 C108 95.31 108 97.62 108 100 C110.64 100 113.28 100 116 100 C116 107.92 116 115.84 116 124 C113.36 124 110.72 124 108 124 C108 126.31 108 128.62 108 131 C110.64 131 113.28 131 116 131 C116 141.23 116 151.46 116 162 C110.72 162 105.44 162 100 162 C100 166.95 100 171.9 100 177 C97.36 177 94.72 177 92 177 C92 181.95 92 186.9 92 192 C89.69 192 87.38 192 85 192 C85 187.05 85 182.1 85 177 C74.77 177 64.54 177 54 177 C54 174.69 54 172.38 54 170 C61.59 170 69.18 170 77 170 C77 167.36 77 164.72 77 162 C67.1 162 57.2 162 47 162 C47 164.64 47 167.28 47 170 C41.72 170 36.44 170 31 170 C31 167.36 31 164.72 31 162 C35.95 162 40.9 162 46 162 C46 159.36 46 156.72 46 154 C41.05 154 36.1 154 31 154 C31 149.05 31 144.1 31 139 C28.36 139 25.72 139 23 139 C23 143.95 23 148.9 23 154 C20.69 154 18.38 154 16 154 C16 151.69 16 149.38 16 147 C13.36 147 10.72 147 8 147 C8 144.36 8 141.72 8 139 C10.64 139 13.28 139 16 139 C16 134.05 16 129.1 16 124 C13.36 124 10.72 124 8 124 C8 126.31 8 128.62 8 131 C5.69 131 3.38 131 1 131 C1 133.64 1 136.28 1 139 C-1.64 139 -4.28 139 -7 139 C-7 141.31 -7 143.62 -7 146 C-4.69 146 -2.38 146 0 146 C0 148.64 0 151.28 0 154 C2.64 154 5.28 154 8 154 C8 156.64 8 159.28 8 162 C3.05 162 -1.9 162 -7 162 C-7 157.05 -7 152.1 -7 147 C-9.64 147 -12.28 147 -15 147 C-15 141.72 -15 136.44 -15 131 C-27.54 131 -40.08 131 -53 131 C-53 128.36 -53 125.72 -53 123 C-55.64 123 -58.28 123 -61 123 C-61 125.64 -61 128.28 -61 131 C-65.95 131 -70.9 131 -76 131 C-76 128.36 -76 125.72 -76 123 C-73.69 123 -71.38 123 -69 123 C-69 120.69 -69 118.38 -69 116 C-66.36 116 -63.72 116 -61 116 C-61 108.41 -61 100.82 -61 93 C-58.36 93 -55.72 93 -53 93 C-53 95.31 -53 97.62 -53 100 C-50.69 100 -48.38 100 -46 100 C-46 97.69 -46 95.38 -46 93 C-35.77 93 -25.54 93 -15 93 C-15 95.31 -15 97.62 -15 100 C-10.05 100 -5.1 100 0 100 C0 97.69 0 95.38 0 93 C-2.31 93 -4.62 93 -7 93 C-7 90.36 -7 87.72 -7 85 C-2.05 85 2.9 85 8 85 C8 77.41 8 69.82 8 62 C5.36 62 2.72 62 0 62 C0 54.41 0 46.82 0 39 C-2.31 39 -4.62 39 -7 39 C-7 46.59 -7 54.18 -7 62 C-9.64 62 -12.28 62 -15 62 C-15 51.77 -15 41.54 -15 31 C-12.36 31 -9.72 31 -7 31 C-7 28.69 -7 26.38 -7 24 C-9.64 24 -12.28 24 -15 24 C-15 18.72 -15 13.44 -15 8 C-10.05 8 -5.1 8 0 8 C0 5.36 0 2.72 0 0 Z " fill="#F9F9F9" transform="translate(108,31)"/>
<path d="M0 0 C4.95 0 9.9 0 15 0 C15 2.64 15 5.28 15 8 C17.64 8 20.28 8 23 8 C23 15.59 23 23.18 23 31 C20.36 31 17.72 31 15 31 C15 33.31 15 35.62 15 38 C17.64 38 20.28 38 23 38 C23 45.92 23 53.84 23 62 C20.36 62 17.72 62 15 62 C15 64.31 15 66.62 15 69 C17.64 69 20.28 69 23 69 C23 79.23 23 89.46 23 100 C17.72 100 12.44 100 7 100 C7 104.95 7 109.9 7 115 C4.36 115 1.72 115 -1 115 C-1 119.95 -1 124.9 -1 130 C-3.31 130 -5.62 130 -8 130 C-8 125.05 -8 120.1 -8 115 C-18.23 115 -28.46 115 -39 115 C-39 112.69 -39 110.38 -39 108 C-31.41 108 -23.82 108 -16 108 C-16 105.36 -16 102.72 -16 100 C-25.9 100 -35.8 100 -46 100 C-46 102.64 -46 105.28 -46 108 C-51.28 108 -56.56 108 -62 108 C-62 105.36 -62 102.72 -62 100 C-57.05 100 -52.1 100 -47 100 C-47 97.36 -47 94.72 -47 92 C-51.95 92 -56.9 92 -62 92 C-62 87.05 -62 82.1 -62 77 C-64.64 77 -67.28 77 -70 77 C-70 81.95 -70 86.9 -70 92 C-72.31 92 -74.62 92 -77 92 C-77 89.69 -77 87.38 -77 85 C-79.64 85 -82.28 85 -85 85 C-85 82.36 -85 79.72 -85 77 C-82.36 77 -79.72 77 -77 77 C-77 72.05 -77 67.1 -77 62 C-72.05 62 -67.1 62 -62 62 C-62 64.31 -62 66.62 -62 69 C-59.36 69 -56.72 69 -54 69 C-54 66.36 -54 63.72 -54 61 C-51.69 61 -49.38 61 -47 61 C-47 58.69 -47 56.38 -47 54 C-44.36 54 -41.72 54 -39 54 C-39 51.36 -39 48.72 -39 46 C-26.13 46 -13.26 46 0 46 C0 50.95 0 55.9 0 61 C4.95 61 9.9 61 15 61 C15 58.69 15 56.38 15 54 C12.36 54 9.72 54 7 54 C7 51.36 7 48.72 7 46 C9.64 46 12.28 46 15 46 C15 43.69 15 41.38 15 39 C12.36 39 9.72 39 7 39 C7 33.72 7 28.44 7 23 C4.36 23 1.72 23 -1 23 C-1 27.95 -1 32.9 -1 38 C-3.31 38 -5.62 38 -8 38 C-8 30.74 -8 23.48 -8 16 C-5.36 16 -2.72 16 0 16 C0 10.72 0 5.44 0 0 Z " fill="#0A0A0A" transform="translate(201,93)"/>
<path d="M0 0 C2.64 0 5.28 0 8 0 C8 5.28 8 10.56 8 16 C3.05 16 -1.9 16 -7 16 C-7 18.31 -7 20.62 -7 23 C-4.69 23 -2.38 23 0 23 C0 25.64 0 28.28 0 31 C2.64 31 5.28 31 8 31 C8 38.59 8 46.18 8 54 C10.64 54 13.28 54 16 54 C16 44.1 16 34.2 16 24 C20.95 24 25.9 24 31 24 C31 26.31 31 28.62 31 31 C35.95 31 40.9 31 46 31 C46 33.64 46 36.28 46 39 C48.64 39 51.28 39 54 39 C54 43.95 54 48.9 54 54 C51.36 54 48.72 54 46 54 C46 51.69 46 49.38 46 47 C43.69 47 41.38 47 39 47 C39 49.64 39 52.28 39 55 C36.36 55 33.72 55 31 55 C31 57.31 31 59.62 31 62 C36.28 62 41.56 62 47 62 C47 64.64 47 67.28 47 70 C41.72 70 36.44 70 31 70 C31 72.31 31 74.62 31 77 C33.64 77 36.28 77 39 77 C39 79.64 39 82.28 39 85 C36.36 85 33.72 85 31 85 C31 87.64 31 90.28 31 93 C26.05 93 21.1 93 16 93 C16 102.9 16 112.8 16 123 C13.36 123 10.72 123 8 123 C8 115.41 8 107.82 8 100 C5.69 100 3.38 100 1 100 C1 97.69 1 95.38 1 93 C-1.64 93 -4.28 93 -7 93 C-7 90.36 -7 87.72 -7 85 C-2.05 85 2.9 85 8 85 C8 77.41 8 69.82 8 62 C5.36 62 2.72 62 0 62 C0 54.41 0 46.82 0 39 C-2.31 39 -4.62 39 -7 39 C-7 46.59 -7 54.18 -7 62 C-9.64 62 -12.28 62 -15 62 C-15 51.77 -15 41.54 -15 31 C-12.36 31 -9.72 31 -7 31 C-7 28.69 -7 26.38 -7 24 C-9.64 24 -12.28 24 -15 24 C-15 18.72 -15 13.44 -15 8 C-10.05 8 -5.1 8 0 8 C0 5.36 0 2.72 0 0 Z " fill="#060606" transform="translate(108,31)"/>
<path d="M0 0 C17.49 0 34.98 0 53 0 C53 17.49 53 34.98 53 53 C35.51 53 18.02 53 0 53 C0 35.51 0 18.02 0 0 Z " fill="#F1F1F1" transform="translate(32,170)"/>
<path d="M0 0 C17.49 0 34.98 0 53 0 C53 17.49 53 34.98 53 53 C35.51 53 18.02 53 0 53 C0 35.51 0 18.02 0 0 Z " fill="#F1F1F1" transform="translate(170,32)"/>
<path d="M0 0 C17.49 0 34.98 0 53 0 C53 17.49 53 34.98 53 53 C35.51 53 18.02 53 0 53 C0 35.51 0 18.02 0 0 Z " fill="#F2F2F2" transform="translate(32,32)"/>
<path d="M0 0 C2.64 0 5.28 0 8 0 C8 2.31 8 4.62 8 7 C10.31 7 12.62 7 15 7 C15 4.69 15 2.38 15 0 C25.23 0 35.46 0 46 0 C46 2.31 46 4.62 46 7 C38.41 7 30.82 7 23 7 C23 9.64 23 12.28 23 15 C27.95 15 32.9 15 38 15 C38 17.64 38 20.28 38 23 C40.64 23 43.28 23 46 23 C46 18.05 46 13.1 46 8 C50.95 8 55.9 8 61 8 C61 10.31 61 12.62 61 15 C58.69 15 56.38 15 54 15 C54 17.64 54 20.28 54 23 C56.31 23 58.62 23 61 23 C61 25.31 61 27.62 61 30 C56.05 30 51.1 30 46 30 C46 32.64 46 35.28 46 38 C33.46 38 20.92 38 8 38 C8 35.36 8 32.72 8 30 C5.36 30 2.72 30 0 30 C0 32.64 0 35.28 0 38 C-4.95 38 -9.9 38 -15 38 C-15 35.36 -15 32.72 -15 30 C-12.69 30 -10.38 30 -8 30 C-8 27.69 -8 25.38 -8 23 C-5.36 23 -2.72 23 0 23 C0 15.41 0 7.82 0 0 Z " fill="#070707" transform="translate(47,124)"/>
<path d="M0 0 C17.49 0 34.98 0 53 0 C53 17.49 53 34.98 53 53 C35.51 53 18.02 53 0 53 C0 35.51 0 18.02 0 0 Z M7 7 C7 19.87 7 32.74 7 46 C19.87 46 32.74 46 46 46 C46 33.13 46 20.26 46 7 C33.13 7 20.26 7 7 7 Z " fill="#010101" transform="translate(32,170)"/>
<path d="M0 0 C17.49 0 34.98 0 53 0 C53 17.49 53 34.98 53 53 C35.51 53 18.02 53 0 53 C0 35.51 0 18.02 0 0 Z M7 7 C7 19.87 7 32.74 7 46 C19.87 46 32.74 46 46 46 C46 33.13 46 20.26 46 7 C33.13 7 20.26 7 7 7 Z " fill="#010101" transform="translate(170,32)"/>
<path d="M0 0 C17.49 0 34.98 0 53 0 C53 17.49 53 34.98 53 53 C35.51 53 18.02 53 0 53 C0 35.51 0 18.02 0 0 Z M7 7 C7 19.87 7 32.74 7 46 C19.87 46 32.74 46 46 46 C46 33.13 46 20.26 46 7 C33.13 7 20.26 7 7 7 Z " fill="#010101" transform="translate(32,32)"/>
<path d="M0 0 C7.59 0 15.18 0 23 0 C23 2.64 23 5.28 23 8 C20.36 8 17.72 8 15 8 C15 10.31 15 12.62 15 15 C12.36 15 9.72 15 7 15 C7 17.64 7 20.28 7 23 C4.69 23 2.38 23 0 23 C0 20.69 0 18.38 0 16 C-2.64 16 -5.28 16 -8 16 C-8 20.95 -8 25.9 -8 31 C-0.41 31 7.18 31 15 31 C15 33.64 15 36.28 15 39 C7.41 39 -0.18 39 -8 39 C-8 41.31 -8 43.62 -8 46 C-10.64 46 -13.28 46 -16 46 C-16 43.69 -16 41.38 -16 39 C-18.31 39 -20.62 39 -23 39 C-23 43.95 -23 48.9 -23 54 C-28.28 54 -33.56 54 -39 54 C-39 48.72 -39 43.44 -39 38 C-36.36 38 -33.72 38 -31 38 C-31 35.69 -31 33.38 -31 31 C-26.05 31 -21.1 31 -16 31 C-16 25.72 -16 20.44 -16 15 C-13.36 15 -10.72 15 -8 15 C-8 12.69 -8 10.38 -8 8 C-5.36 8 -2.72 8 0 8 C0 5.36 0 2.72 0 0 Z " fill="#6B6B6B" transform="translate(170,93)"/>
<path d="M0 0 C4.95 0 9.9 0 15 0 C15 2.31 15 4.62 15 7 C19.95 7 24.9 7 30 7 C30 9.64 30 12.28 30 15 C32.64 15 35.28 15 38 15 C38 19.95 38 24.9 38 30 C35.36 30 32.72 30 30 30 C30 27.69 30 25.38 30 23 C27.69 23 25.38 23 23 23 C23 25.64 23 28.28 23 31 C20.36 31 17.72 31 15 31 C15 33.31 15 35.62 15 38 C20.28 38 25.56 38 31 38 C31 40.64 31 43.28 31 46 C23.08 46 15.16 46 7 46 C7 43.36 7 40.72 7 38 C4.36 38 1.72 38 -1 38 C-1 35.69 -1 33.38 -1 31 C-3.31 31 -5.62 31 -8 31 C-8 30.67 -8 30.34 -8 30 C-5.36 30 -2.72 30 0 30 C0 20.1 0 10.2 0 0 Z " fill="#818181" transform="translate(124,55)"/>
<path d="M0 0 C4.95 0 9.9 0 15 0 C15 2.64 15 5.28 15 8 C17.64 8 20.28 8 23 8 C23 15.59 23 23.18 23 31 C20.36 31 17.72 31 15 31 C15 33.31 15 35.62 15 38 C12.36 38 9.72 38 7 38 C7 33.05 7 28.1 7 23 C4.36 23 1.72 23 -1 23 C-1 27.95 -1 32.9 -1 38 C-3.31 38 -5.62 38 -8 38 C-8 30.74 -8 23.48 -8 16 C-5.36 16 -2.72 16 0 16 C0 10.72 0 5.44 0 0 Z " fill="#0D0D0D" transform="translate(201,93)"/>
<path d="M0 0 C4.95 0 9.9 0 15 0 C15 2.64 15 5.28 15 8 C17.64 8 20.28 8 23 8 C23 5.36 23 2.72 23 0 C25.31 0 27.62 0 30 0 C30 2.64 30 5.28 30 8 C34.95 8 39.9 8 45 8 C45 10.31 45 12.62 45 15 C40.05 15 35.1 15 30 15 C30 17.64 30 20.28 30 23 C25.05 23 20.1 23 15 23 C15 20.36 15 17.72 15 15 C12.36 15 9.72 15 7 15 C7 17.64 7 20.28 7 23 C4.69 23 2.38 23 0 23 C0 15.41 0 7.82 0 0 Z " fill="#010101" transform="translate(32,93)"/>
<path d="M0 0 C4.95 0 9.9 0 15 0 C15 2.31 15 4.62 15 7 C12.36 7 9.72 7 7 7 C7 12.28 7 17.56 7 23 C12.28 23 17.56 23 23 23 C23 18.05 23 13.1 23 8 C25.31 8 27.62 8 30 8 C30 10.31 30 12.62 30 15 C32.64 15 35.28 15 38 15 C38 17.64 38 20.28 38 23 C35.36 23 32.72 23 30 23 C30 25.31 30 27.62 30 30 C27.69 30 25.38 30 23 30 C23 32.64 23 35.28 23 38 C20.36 38 17.72 38 15 38 C15 35.36 15 32.72 15 30 C10.05 30 5.1 30 0 30 C0 20.1 0 10.2 0 0 Z " fill="#FBFBFB" transform="translate(124,124)"/>
<path d="M0 0 C7.59 0 15.18 0 23 0 C23 7.59 23 15.18 23 23 C15.41 23 7.82 23 0 23 C0 15.41 0 7.82 0 0 Z " fill="#020202" transform="translate(47,185)"/>
<path d="M0 0 C7.59 0 15.18 0 23 0 C23 7.59 23 15.18 23 23 C15.41 23 7.82 23 0 23 C0 15.41 0 7.82 0 0 Z " fill="#F9F9F9" transform="translate(162,162)"/>
<path d="M0 0 C7.59 0 15.18 0 23 0 C23 7.59 23 15.18 23 23 C15.41 23 7.82 23 0 23 C0 15.41 0 7.82 0 0 Z " fill="#020202" transform="translate(185,47)"/>
<path d="M0 0 C7.59 0 15.18 0 23 0 C23 7.59 23 15.18 23 23 C15.41 23 7.82 23 0 23 C0 15.41 0 7.82 0 0 Z " fill="#000000" transform="translate(47,47)"/>
<path d="M0 0 C2.64 0 5.28 0 8 0 C8 2.64 8 5.28 8 8 C10.64 8 13.28 8 16 8 C16 5.69 16 3.38 16 1 C20.95 1 25.9 1 31 1 C31 3.31 31 5.62 31 8 C28.36 8 25.72 8 23 8 C23 12.95 23 17.9 23 23 C18.05 23 13.1 23 8 23 C8 20.69 8 18.38 8 16 C5.36 16 2.72 16 0 16 C0 10.72 0 5.44 0 0 Z " fill="#080808" transform="translate(131,31)"/>
<path d="M0 0 C7.59 0 15.18 0 23 0 C23 2.64 23 5.28 23 8 C20.36 8 17.72 8 15 8 C15 10.31 15 12.62 15 15 C12.36 15 9.72 15 7 15 C7 17.64 7 20.28 7 23 C4.69 23 2.38 23 0 23 C0 20.36 0 17.72 0 15 C-2.64 15 -5.28 15 -8 15 C-8 12.69 -8 10.38 -8 8 C-5.36 8 -2.72 8 0 8 C0 5.36 0 2.72 0 0 Z " fill="#030303" transform="translate(170,93)"/>
<path d="M0 0 C4.95 0 9.9 0 15 0 C15 2.64 15 5.28 15 8 C12.36 8 9.72 8 7 8 C7 12.95 7 17.9 7 23 C4.36 23 1.72 23 -1 23 C-1 27.95 -1 32.9 -1 38 C-3.31 38 -5.62 38 -8 38 C-8 30.74 -8 23.48 -8 16 C-5.36 16 -2.72 16 0 16 C0 10.72 0 5.44 0 0 Z " fill="#030303" transform="translate(201,93)"/>
<path d="M0 0 C4.95 0 9.9 0 15 0 C15 2.64 15 5.28 15 8 C12.69 8 10.38 8 8 8 C8 10.31 8 12.62 8 15 C10.31 15 12.62 15 15 15 C15 17.64 15 20.28 15 23 C17.64 23 20.28 23 23 23 C23 25.64 23 28.28 23 31 C18.05 31 13.1 31 8 31 C8 26.05 8 21.1 8 16 C5.36 16 2.72 16 0 16 C0 10.72 0 5.44 0 0 Z " fill="#111111" transform="translate(93,162)"/>
<path d="M0 0 C2.64 0 5.28 0 8 0 C8 5.28 8 10.56 8 16 C3.05 16 -1.9 16 -7 16 C-7 18.31 -7 20.62 -7 23 C-4.69 23 -2.38 23 0 23 C0 23.33 0 23.66 0 24 C-4.95 24 -9.9 24 -15 24 C-15 18.72 -15 13.44 -15 8 C-10.05 8 -5.1 8 0 8 C0 5.36 0 2.72 0 0 Z " fill="#111111" transform="translate(108,31)"/>
<path d="M0 0 C4.95 0 9.9 0 15 0 C15 2.31 15 4.62 15 7 C12.36 7 9.72 7 7 7 C7 11.95 7 16.9 7 22 C2.38 22 -2.24 22 -7 22 C-7 17.38 -7 12.76 -7 8 C-4.69 8 -2.38 8 0 8 C0 5.36 0 2.72 0 0 Z " fill="#010101" transform="translate(139,124)"/>
<path d="M0 0 C4.95 0 9.9 0 15 0 C15 2.64 15 5.28 15 8 C17.64 8 20.28 8 23 8 C23 12.95 23 17.9 23 23 C20.36 23 17.72 23 15 23 C15 20.69 15 18.38 15 16 C12.69 16 10.38 16 8 16 C8 13.36 8 10.72 8 8 C5.36 8 2.72 8 0 8 C0 5.36 0 2.72 0 0 Z " fill="#090909" transform="translate(139,62)"/>
<path d="M0 0 C4.95 0 9.9 0 15 0 C15 2.64 15 5.28 15 8 C19.95 8 24.9 8 30 8 C30 10.31 30 12.62 30 15 C22.41 15 14.82 15 7 15 C7 12.69 7 10.38 7 8 C4.69 8 2.38 8 0 8 C0 5.36 0 2.72 0 0 Z " fill="#050505" transform="translate(78,93)"/>
<path d="M0 0 C4.95 0 9.9 0 15 0 C15 2.31 15 4.62 15 7 C12.36 7 9.72 7 7 7 C7 14.59 7 22.18 7 30 C4.69 30 2.38 30 0 30 C0 20.1 0 10.2 0 0 Z " fill="#010101" transform="translate(124,55)"/>
<path d="M0 0 C7.59 0 15.18 0 23 0 C23 4.95 23 9.9 23 15 C20.69 15 18.38 15 16 15 C16 12.69 16 10.38 16 8 C10.72 8 5.44 8 0 8 C0 5.36 0 2.72 0 0 Z " fill="#070707" transform="translate(139,208)"/>
<path d="M0 0 C0.33 0 0.66 0 1 0 C1 4.95 1 9.9 1 15 C3.31 15 5.62 15 8 15 C8 17.97 8 20.94 8 24 C5.69 24 3.38 24 1 24 C1 26.31 1 28.62 1 31 C0.67 31 0.34 31 0 31 C0 28.36 0 25.72 0 23 C-4.95 23 -9.9 23 -15 23 C-15 20.69 -15 18.38 -15 16 C-19.95 16 -24.9 16 -30 16 C-30 15.67 -30 15.34 -30 15 C-20.1 15 -10.2 15 0 15 C0 10.05 0 5.1 0 0 Z " fill="#8A8A8A" transform="translate(154,39)"/>
<path d="M0 0 C0.33 0 0.66 0 1 0 C1 2.31 1 4.62 1 7 C10.9 7 20.8 7 31 7 C31 7.33 31 7.66 31 8 C23.41 8 15.82 8 8 8 C8 10.31 8 12.62 8 15 C5.69 15 3.38 15 1 15 C1 17.64 1 20.28 1 23 C0.67 23 0.34 23 0 23 C0 20.36 0 17.72 0 15 C-4.95 15 -9.9 15 -15 15 C-15 12.36 -15 9.72 -15 7 C-10.05 7 -5.1 7 0 7 C0 4.69 0 2.38 0 0 Z " fill="#838383" transform="translate(108,147)"/>
<path d="M0 0 C2.31 0 4.62 0 7 0 C7 7.26 7 14.52 7 22 C4.69 22 2.38 22 0 22 C0 19.69 0 17.38 0 15 C-2.64 15 -5.28 15 -8 15 C-8 12.36 -8 9.72 -8 7 C-5.36 7 -2.72 7 0 7 C0 4.69 0 2.38 0 0 Z " fill="#050505" transform="translate(216,132)"/>
<path d="M0 0 C2.31 0 4.62 0 7 0 C7 7.26 7 14.52 7 22 C4.69 22 2.38 22 0 22 C0 19.69 0 17.38 0 15 C-2.64 15 -5.28 15 -8 15 C-8 12.36 -8 9.72 -8 7 C-5.36 7 -2.72 7 0 7 C0 4.69 0 2.38 0 0 Z " fill="#FBFBFB" transform="translate(109,132)"/>
<path d="M0 0 C2.31 0 4.62 0 7 0 C7 2.31 7 4.62 7 7 C9.64 7 12.28 7 15 7 C15 9.64 15 12.28 15 15 C12.36 15 9.72 15 7 15 C7 17.31 7 19.62 7 22 C4.69 22 2.38 22 0 22 C0 14.74 0 7.48 0 0 Z " fill="#F9F9F9" transform="translate(132,63)"/>
<path d="M0 0 C0.33 0 0.66 0 1 0 C1 2.31 1 4.62 1 7 C5.62 7 10.24 7 15 7 C15 4.69 15 2.38 15 0 C15.33 0 15.66 0 16 0 C16 2.64 16 5.28 16 8 C18.31 8 20.62 8 23 8 C23 10.31 23 12.62 23 15 C30.59 15 38.18 15 46 15 C46 15.33 46 15.66 46 16 C38.74 16 31.48 16 24 16 C24 18.31 24 20.62 24 23 C21.03 23 18.06 23 15 23 C15 20.69 15 18.38 15 16 C10.38 16 5.76 16 1 16 C1 18.31 1 20.62 1 23 C0.67 23 0.34 23 0 23 C0 20.36 0 17.72 0 15 C4.95 15 9.9 15 15 15 C15 12.69 15 10.38 15 8 C10.05 8 5.1 8 0 8 C0 5.36 0 2.72 0 0 Z " fill="#9F9F9F" transform="translate(62,93)"/>
<path d="M0 0 C2.31 0 4.62 0 7 0 C7 2.31 7 4.62 7 7 C9.64 7 12.28 7 15 7 C15 9.64 15 12.28 15 15 C10.05 15 5.1 15 0 15 C0 10.05 0 5.1 0 0 Z " fill="#050505" transform="translate(101,178)"/>
<path d="M0 0 C7.59 0 15.18 0 23 0 C23 2.31 23 4.62 23 7 C15.41 7 7.82 7 0 7 C0 4.69 0 2.38 0 0 Z " fill="#FCFCFC" transform="translate(162,147)"/>
<path d="M0 0 C7.59 0 15.18 0 23 0 C23 2.31 23 4.62 23 7 C15.41 7 7.82 7 0 7 C0 4.69 0 2.38 0 0 Z " fill="#FAFAFA" transform="translate(62,147)"/>
<path d="M0 0 C7.59 0 15.18 0 23 0 C23 2.31 23 4.62 23 7 C15.41 7 7.82 7 0 7 C0 4.69 0 2.38 0 0 Z " fill="#020202" transform="translate(162,124)"/>
<path d="M0 0 C5.28 0 10.56 0 16 0 C16 2.64 16 5.28 16 8 C10.72 8 5.44 8 0 8 C0 5.36 0 2.72 0 0 Z " fill="#171717" transform="translate(208,216)"/>
<path d="M0 0 C2.64 0 5.28 0 8 0 C8 5.28 8 10.56 8 16 C5.36 16 2.72 16 0 16 C0 10.72 0 5.44 0 0 Z " fill="#131313" transform="translate(93,208)"/>
<path d="M0 0 C2.64 0 5.28 0 8 0 C8 2.64 8 5.28 8 8 C5.69 8 3.38 8 1 8 C1 10.64 1 13.28 1 16 C-1.64 16 -4.28 16 -7 16 C-7 13.36 -7 10.72 -7 8 C-4.69 8 -2.38 8 0 8 C0 5.36 0 2.72 0 0 Z " fill="#D3D3D3" transform="translate(200,185)"/>
<path d="M0 0 C2.64 0 5.28 0 8 0 C8 4.95 8 9.9 8 15 C5.36 15 2.72 15 0 15 C0 10.05 0 5.1 0 0 Z " fill="#F5F5F5" transform="translate(208,101)"/>
<path d="M0 0 C4.95 0 9.9 0 15 0 C15 2.31 15 4.62 15 7 C10.05 7 5.1 7 0 7 C0 4.69 0 2.38 0 0 Z " fill="#020202" transform="translate(139,193)"/>
<path d="M0 0 C4.95 0 9.9 0 15 0 C15 2.31 15 4.62 15 7 C10.05 7 5.1 7 0 7 C0 4.69 0 2.38 0 0 Z " fill="#FCFCFC" transform="translate(201,170)"/>
<path d="M0 0 C4.95 0 9.9 0 15 0 C15 2.31 15 4.62 15 7 C10.05 7 5.1 7 0 7 C0 4.69 0 2.38 0 0 Z " fill="#FDFDFD" transform="translate(93,155)"/>
<path d="M0 0 C4.95 0 9.9 0 15 0 C15 2.31 15 4.62 15 7 C10.05 7 5.1 7 0 7 C0 4.69 0 2.38 0 0 Z " fill="#020202" transform="translate(139,93)"/>
<path d="M0 0 C4.95 0 9.9 0 15 0 C15 2.31 15 4.62 15 7 C10.05 7 5.1 7 0 7 C0 4.69 0 2.38 0 0 Z " fill="#FBFBFB" transform="translate(139,55)"/>
<path d="M0 0 C2.31 0 4.62 0 7 0 C7 4.62 7 9.24 7 14 C4.69 14 2.38 14 0 14 C0 9.38 0 4.76 0 0 Z " fill="#010101" transform="translate(155,109)"/>
<path d="M0 0 C2.64 0 5.28 0 8 0 C8 2.64 8 5.28 8 8 C5.36 8 2.72 8 0 8 C0 5.36 0 2.72 0 0 Z " fill="#1D1D1D" transform="translate(177,216)"/>
<path d="M0 0 C2.64 0 5.28 0 8 0 C8 2.64 8 5.28 8 8 C5.36 8 2.72 8 0 8 C0 5.36 0 2.72 0 0 Z " fill="#181818" transform="translate(108,216)"/>
<path d="M0 0 C2.64 0 5.28 0 8 0 C8 2.64 8 5.28 8 8 C5.36 8 2.72 8 0 8 C0 5.36 0 2.72 0 0 Z " fill="#1E1E1E" transform="translate(216,200)"/>
<path d="M0 0 C2.64 0 5.28 0 8 0 C8 2.64 8 5.28 8 8 C5.36 8 2.72 8 0 8 C0 5.36 0 2.72 0 0 Z " fill="#171717" transform="translate(116,193)"/>
<path d="M0 0 C2.64 0 5.28 0 8 0 C8 2.64 8 5.28 8 8 C5.36 8 2.72 8 0 8 C0 5.36 0 2.72 0 0 Z " fill="#181818" transform="translate(93,193)"/>
<path d="M0 0 C2.64 0 5.28 0 8 0 C8.04241723 2.33294775 8.04092937 4.66702567 8 7 C7 8 7 8 3.4375 8.0625 C2.303125 8.041875 1.16875 8.02125 0 8 C0 5.36 0 2.72 0 0 Z " fill="#1D1D1D" transform="translate(170,170)"/>
<path d="M0 0 C0.33 0 0.66 0 1 0 C1 2.31 1 4.62 1 7 C3.31 7 5.62 7 8 7 C8 7.33 8 7.66 8 8 C5.69 8 3.38 8 1 8 C1 10.31 1 12.62 1 15 C0.67 15 0.34 15 0 15 C0 12.69 0 10.38 0 8 C-12.54 8 -25.08 8 -38 8 C-38 7.67 -38 7.34 -38 7 C-25.46 7 -12.92 7 0 7 C0 4.69 0 2.38 0 0 Z " fill="#858585" transform="translate(108,124)"/>
<path d="M0 0 C2.31 0 4.62 0 7 0 C7 2.64 7 5.28 7 8 C4.69 8 2.38 8 0 8 C0 5.36 0 2.72 0 0 Z " fill="#F5F5F5" transform="translate(193,162)"/>
<path d="M0 0 C2.31 0 4.62 0 7 0 C7 2.64 7 5.28 7 8 C4.69 8 2.38 8 0 8 C0 5.36 0 2.72 0 0 Z " fill="#F5F5F5" transform="translate(147,162)"/>
<path d="M0 0 C2.31 0 4.62 0 7 0 C7 2.64 7 5.28 7 8 C4.69 8 2.38 8 0 8 C0 5.36 0 2.72 0 0 Z " fill="#F5F5F5" transform="translate(55,139)"/>
<path d="M0 0 C2.31 0 4.62 0 7 0 C7 2.64 7 5.28 7 8 C4.69 8 2.38 8 0 8 C0 5.36 0 2.72 0 0 Z " fill="#090909" transform="translate(32,139)"/>
<path d="M0 0 C2.64 0 5.28 0 8 0 C8 2.31 8 4.62 8 7 C5.36 7 2.72 7 0 7 C0 4.69 0 2.38 0 0 Z " fill="#090909" transform="translate(139,78)"/>
<path d="M0 0 C2.31 0 4.62 0 7 0 C7 2.31 7 4.62 7 7 C4.69 7 2.38 7 0 7 C0 4.69 0 2.38 0 0 Z " fill="#020202" transform="translate(124,216)"/>
<path d="M0 0 C2.31 0 4.62 0 7 0 C7 2.31 7 4.62 7 7 C4.69 7 2.38 7 0 7 C0 4.69 0 2.38 0 0 Z " fill="#FDFDFD" transform="translate(193,193)"/>
<path d="M0 0 C2.31 0 4.62 0 7 0 C7 2.31 7 4.62 7 7 C4.69 7 2.38 7 0 7 C0 4.69 0 2.38 0 0 Z " fill="#010101" transform="translate(109,155)"/>
<path d="M0 0 C2.31 0 4.62 0 7 0 C7 2.31 7 4.62 7 7 C4.69 7 2.38 7 0 7 C0 4.69 0 2.38 0 0 Z " fill="#010101" transform="translate(155,132)"/>
<path d="M0 0 C2.31 0 4.62 0 7 0 C7 2.31 7 4.62 7 7 C4.69 7 2.38 7 0 7 C0 4.69 0 2.38 0 0 Z " fill="#FCFCFC" transform="translate(155,124)"/>
<path d="M0 0 C2.31 0 4.62 0 7 0 C7 2.31 7 4.62 7 7 C4.69 7 2.38 7 0 7 C0 4.69 0 2.38 0 0 Z " fill="#020202" transform="translate(32,124)"/>
<path d="M0 0 C2.31 0 4.62 0 7 0 C7 2.31 7 4.62 7 7 C4.69 7 2.38 7 0 7 C0 4.69 0 2.38 0 0 Z " fill="#020202" transform="translate(78,109)"/>
<path d="M0 0 C2.31 0 4.62 0 7 0 C7 2.31 7 4.62 7 7 C4.69 7 2.38 7 0 7 C0 4.69 0 2.38 0 0 Z " fill="#FCFCFC" transform="translate(78,101)"/>
<path d="M0 0 C2.31 0 4.62 0 7 0 C7 2.31 7 4.62 7 7 C4.69 7 2.38 7 0 7 C0 4.69 0 2.38 0 0 Z " fill="#FDFDFD" transform="translate(132,93)"/>
<path d="M0 0 C2.31 0 4.62 0 7 0 C7 2.31 7 4.62 7 7 C4.69 7 2.38 7 0 7 C0 4.69 0 2.38 0 0 Z " fill="#010101" transform="translate(132,86)"/>
<path d="M0 0 C2.31 0 4.62 0 7 0 C7 2.31 7 4.62 7 7 C4.69 7 2.38 7 0 7 C0 4.69 0 2.38 0 0 Z " fill="#FCFCFC" transform="translate(124,86)"/>
<path d="M0 0 C2.31 0 4.62 0 7 0 C7 2.31 7 4.62 7 7 C4.69 7 2.38 7 0 7 C0 4.69 0 2.38 0 0 Z " fill="#020202" transform="translate(155,55)"/>
</svg>
