<?xml version="1.0" encoding="utf-8"?>
<!-- Generator: Adobe Illustrator 23.1.0, SVG Export Plug-In . SVG Version: 6.00 Build 0)  -->
<svg version="1.1" id="Слой_1" xmlns="http://www.w3.org/2000/svg" xmlns:xlink="http://www.w3.org/1999/xlink" x="0px" y="0px"
	 viewBox="0 0 100 40" style="enable-background:new 0 0 100 40;" xml:space="preserve">
<style type="text/css">
	.st0{stroke:#FFFFFF;stroke-width:0.25;stroke-miterlimit:10;}
	.st1{fill:#FFFFFF;stroke:#FFFFFF;stroke-width:0.25;stroke-miterlimit:10;}
	.st2{fill:#201600;stroke:#000000;stroke-width:2;stroke-miterlimit:10;}
</style>
<ellipse transform="matrix(7.164822e-03 -1 1 7.164822e-03 0.3002 40.4483)" class="st0" cx="20.52" cy="20.07" rx="17.7" ry="17.27"/>
<g>
	<path class="st0" d="M14.09,13.41l8.58-0.02l0,2.25l-8.58,0.02c-0.28,0-0.52,0.11-0.72,0.32c-0.2,0.21-0.3,0.46-0.3,0.76
		l0.03,12.59l-2.16,0.01l-0.03-12.59c0-0.91,0.31-1.7,0.93-2.35C12.47,13.74,13.22,13.42,14.09,13.41z"/>
	<path class="st0" d="M24.37,8.17l2.16-0.01l0,2.25l-2.16,0.01L24.37,8.17z M24.41,29.3l-0.03-15.91l2.16-0.01l0.03,15.91
		L24.41,29.3z"/>
	<path class="st0" d="M45.74,13.33l2.53-0.01l-8.41,15.93l-2.5,0.01L28.9,13.38l2.53-0.01l7.18,13.7L45.74,13.33z"/>
	<path class="st0" d="M50.49,8.11l2.16-0.01l0,2.25l-2.16,0.01L50.49,8.11z M50.53,29.23L50.5,13.32l2.16-0.01l0.03,15.91
		L50.53,29.23z"/>
	<path class="st0" d="M62.54,22.84l-4.93,6.38l-2.84,0.01l6.35-8.11 M63.96,21.1l6.41,8.08l-2.84,0.01l-4.98-6.35 M62.53,19.32
		l4.96-6.05l2.81-0.01l-6.35,7.84 M61.12,21.11l-6.38-7.8l2.84-0.01l4.96,6.02"/>
	<path class="st0" d="M87.68,14.2c-0.62-0.65-1.38-0.97-2.27-0.97l-12.32,0.03l0,2.25l12.34-0.03c0.28,0,0.52,0.1,0.72,0.31
		c0.2,0.21,0.3,0.46,0.3,0.75l0.01,3.51l-13.36,0.03l0.01,5.76c0,0.91,0.31,1.7,0.94,2.34c0.01,0.01,0.01,0.01,0.02,0.02
		c0.49-0.55,0.98-1.11,1.47-1.66c-0.18-0.2-0.27-0.44-0.27-0.71l-0.01-3.51l11.21-0.03l0.01,4.58l-8.51,0.02
		c-0.68,0.74-1.34,1.49-2.01,2.24c0.11,0.01,0.23,0.02,0.34,0.02l12.34-0.03l-0.03-12.59C88.62,15.63,88.31,14.85,87.68,14.2z"/>
	<path class="st0" d="M91.07,8L93.23,8l0.04,17.8c0,0.29,0.1,0.54,0.3,0.75c0.2,0.21,0.44,0.31,0.72,0.31l2.58-0.01l0,2.25
		l-2.58,0.01c-0.88,0-1.63-0.32-2.25-0.97c-0.62-0.65-0.94-1.43-0.94-2.34L91.07,8z"/>
</g>
<path class="st1" d="M14.09,13.41l8.58-0.02l0,2.25l-8.58,0.02c-0.28,0-0.52,0.11-0.72,0.32c-0.2,0.21-0.3,0.46-0.3,0.76l0.03,12.59
	l-2.16,0.01l-0.03-12.59c0-0.91,0.31-1.7,0.93-2.35C12.47,13.74,13.22,13.42,14.09,13.41z"/>
<path class="st1" d="M24.37,8.17l2.16-0.01l0,2.25l-2.16,0.01L24.37,8.17z M24.41,29.3l-0.03-15.91l2.16-0.01l0.03,15.91L24.41,29.3
	z"/>
<path class="st1" d="M37.35,29.27l-1.06-1.99 M39.85,29.26l-2.5,0.01 M48.26,13.33l-8.41,15.93 M45.74,13.33l2.53-0.01 M39.29,25.76
	l6.45-12.43 M38.61,27.07l0.68-1.3 M37.25,24.47l1.36,2.6 M36.29,27.27l-7.39-13.9l2.53-0.01l5.82,11.1"/>
<line class="st2" x1="10.91" y1="12.02" x2="14.6" y2="18.76"/>
</svg>
