<?xml version="1.0" encoding="utf-8"?>
<!-- Generator: Adobe Illustrator 23.1.0, SVG Export Plug-In . SVG Version: 6.00 Build 0)  -->
<svg version="1.1" id="Слой_1" xmlns="http://www.w3.org/2000/svg" xmlns:xlink="http://www.w3.org/1999/xlink" x="0px" y="0px"
	 viewBox="0 0 200 200" style="enable-background:new 0 0 200 200;" xml:space="preserve">
<style type="text/css">
	.st0{fill:#FFFFFF;stroke:#000000;stroke-width:2;stroke-miterlimit:10;}
	.st1{stroke:#000000;stroke-width:2;stroke-miterlimit:10;}
	.st2{fill:none;}
	.st3{font-family:'ArialMT';}
	.st4{font-size:24px;}
</style>
<g>
	<path class="st0" d="M43,116.5c-5.2,0-9.5-4.3-9.5-9.5V53c0-5.2,4.3-9.5,9.5-9.5h66c5.2,0,9.5,4.3,9.5,9.5v54
		c0,5.2-4.3,9.5-9.5,9.5H43z"/>
	<path class="st1" d="M109,44c5,0,9,4,9,9v54c0,5-4,9-9,9H43c-5,0-9-4-9-9V53c0-5,4-9,9-9H109 M109,43H43c-5.5,0-10,4.5-10,10v54
		c0,5.5,4.5,10,10,10h66c5.5,0,10-4.5,10-10V53C119,47.5,114.5,43,109,43L109,43z"/>
</g>
<g>
	<path class="st0" d="M91,160.5c-5.2,0-9.5-4.3-9.5-9.5v-20c0-5.2,4.3-9.5,9.5-9.5h20c5.2,0,9.5,4.3,9.5,9.5v20
		c0,5.2-4.3,9.5-9.5,9.5H91z"/>
	<path class="st1" d="M111,122c5,0,9,4,9,9v20c0,5-4,9-9,9H91c-5,0-9-4-9-9v-20c0-5,4-9,9-9H111 M111,121H91c-5.5,0-10,4.5-10,10v20
		c0,5.5,4.5,10,10,10h20c5.5,0,10-4.5,10-10v-20C121,125.5,116.5,121,111,121L111,121z"/>
</g>
<rect x="40.3" y="83" class="st2" width="59.7" height="28.5"/>
<text transform="matrix(1 0 0 1 82 102.6926)" class="st3 st4">&gt;_</text>
<g>
	<path class="st0" d="M134,115.5c-5.2,0-9.5-4.3-9.5-9.5V86c0-5.2,4.3-9.5,9.5-9.5h20c5.2,0,9.5,4.3,9.5,9.5v20
		c0,5.2-4.3,9.5-9.5,9.5H134z"/>
	<path class="st1" d="M154,77c5,0,9,4,9,9v20c0,5-4,9-9,9h-20c-5,0-9-4-9-9V86c0-5,4-9,9-9H154 M154,76h-20c-5.5,0-10,4.5-10,10v20
		c0,5.5,4.5,10,10,10h20c5.5,0,10-4.5,10-10V86C164,80.5,159.5,76,154,76L154,76z"/>
</g>
<g>
	<path class="st0" d="M134,160.5c-5.2,0-9.5-4.3-9.5-9.5v-20c0-5.2,4.3-9.5,9.5-9.5h20c5.2,0,9.5,4.3,9.5,9.5v20
		c0,5.2-4.3,9.5-9.5,9.5H134z"/>
	<path class="st1" d="M154,122c5,0,9,4,9,9v20c0,5-4,9-9,9h-20c-5,0-9-4-9-9v-20c0-5,4-9,9-9H154 M154,121h-20c-5.5,0-10,4.5-10,10
		v20c0,5.5,4.5,10,10,10h20c5.5,0,10-4.5,10-10v-20C164,125.5,159.5,121,154,121L154,121z"/>
</g>
</svg>
