<?xml version="1.0" encoding="utf-8"?>
<!-- Generator: Adobe Illustrator 23.1.0, SVG Export Plug-In . SVG Version: 6.00 Build 0)  -->
<svg version="1.1" id="Слой_1" xmlns="http://www.w3.org/2000/svg" xmlns:xlink="http://www.w3.org/1999/xlink" x="0px" y="0px"
	 viewBox="0 0 200 200" style="enable-background:new 0 0 200 200;" xml:space="preserve">
<style type="text/css">
	.st0{fill:#FFFFFF;}
</style>
<g>
	<path class="st0" d="M37,178.5c-10.75,0-19.5-8.75-19.5-19.5V49c0-10.75,8.75-19.5,19.5-19.5h125c10.75,0,19.5,8.75,19.5,19.5v110
		c0,10.75-8.75,19.5-19.5,19.5H37z"/>
	<path d="M162,32c9.37,0,17,7.63,17,17v110c0,9.37-7.63,17-17,17H37c-9.37,0-17-7.63-17-17V49c0-9.37,7.63-17,17-17H162 M162,27H37
		c-12.1,0-22,9.9-22,22v110c0,12.1,9.9,22,22,22h125c12.1,0,22-9.9,22-22V49C184,36.9,174.1,27,162,27L162,27z"/>
</g>
<g>
	<circle cx="159.5" cy="45.5" r="3"/>
	<path d="M159.5,43c1.38,0,2.5,1.12,2.5,2.5s-1.12,2.5-2.5,2.5s-2.5-1.12-2.5-2.5S158.12,43,159.5,43 M159.5,42
		c-1.93,0-3.5,1.57-3.5,3.5s1.57,3.5,3.5,3.5s3.5-1.57,3.5-3.5S161.43,42,159.5,42L159.5,42z"/>
</g>
<g>
	<circle cx="150.5" cy="45.5" r="3"/>
	<path d="M150.5,43c1.38,0,2.5,1.12,2.5,2.5s-1.12,2.5-2.5,2.5s-2.5-1.12-2.5-2.5S149.12,43,150.5,43 M150.5,42
		c-1.93,0-3.5,1.57-3.5,3.5s1.57,3.5,3.5,3.5s3.5-1.57,3.5-3.5S152.43,42,150.5,42L150.5,42z"/>
</g>
<g>
	<circle cx="141.5" cy="45.5" r="3"/>
	<path d="M141.5,43c1.38,0,2.5,1.12,2.5,2.5s-1.12,2.5-2.5,2.5s-2.5-1.12-2.5-2.5S140.12,43,141.5,43 M141.5,42
		c-1.93,0-3.5,1.57-3.5,3.5s1.57,3.5,3.5,3.5s3.5-1.57,3.5-3.5S143.43,42,141.5,42L141.5,42z"/>
</g>
<g>
	<path d="M65,109.5c-4.14,0-7.5-3.36-7.5-7.5V77c0-4.14,3.36-7.5,7.5-7.5h25c4.14,0,7.5,3.36,7.5,7.5v25c0,4.14-3.36,7.5-7.5,7.5H65
		z"/>
	<path d="M90,70c3.86,0,7,3.14,7,7v25c0,3.86-3.14,7-7,7H65c-3.86,0-7-3.14-7-7V77c0-3.86,3.14-7,7-7H90 M90,69H65c-4.4,0-8,3.6-8,8
		v25c0,4.4,3.6,8,8,8h25c4.4,0,8-3.6,8-8V77C98,72.6,94.4,69,90,69L90,69z"/>
</g>
<g>
	<path d="M108,109.5c-4.14,0-7.5-3.36-7.5-7.5V77c0-4.14,3.36-7.5,7.5-7.5h25c4.14,0,7.5,3.36,7.5,7.5v25c0,4.14-3.36,7.5-7.5,7.5
		H108z"/>
	<path d="M133,70c3.86,0,7,3.14,7,7v25c0,3.86-3.14,7-7,7h-25c-3.86,0-7-3.14-7-7V77c0-3.86,3.14-7,7-7H133 M133,69h-25
		c-4.4,0-8,3.6-8,8v25c0,4.4,3.6,8,8,8h25c4.4,0,8-3.6,8-8V77C141,72.6,137.4,69,133,69L133,69z"/>
</g>
<g>
	<path d="M65,152.5c-4.14,0-7.5-3.36-7.5-7.5v-25c0-4.14,3.36-7.5,7.5-7.5h25c4.14,0,7.5,3.36,7.5,7.5v25c0,4.14-3.36,7.5-7.5,7.5
		H65z"/>
	<path d="M90,113c3.86,0,7,3.14,7,7v25c0,3.86-3.14,7-7,7H65c-3.86,0-7-3.14-7-7v-25c0-3.86,3.14-7,7-7H90 M90,112H65
		c-4.4,0-8,3.6-8,8v25c0,4.4,3.6,8,8,8h25c4.4,0,8-3.6,8-8v-25C98,115.6,94.4,112,90,112L90,112z"/>
</g>
<g>
	<path d="M108,152.5c-4.14,0-7.5-3.36-7.5-7.5v-25c0-4.14,3.36-7.5,7.5-7.5h25c4.14,0,7.5,3.36,7.5,7.5v25c0,4.14-3.36,7.5-7.5,7.5
		H108z"/>
	<path d="M133,113c3.86,0,7,3.14,7,7v25c0,3.86-3.14,7-7,7h-25c-3.86,0-7-3.14-7-7v-25c0-3.86,3.14-7,7-7H133 M133,112h-25
		c-4.4,0-8,3.6-8,8v25c0,4.4,3.6,8,8,8h25c4.4,0,8-3.6,8-8v-25C141,115.6,137.4,112,133,112L133,112z"/>
</g>
</svg>
